<?xml version="1.0" standalone="no"?>
<!DOCTYPE svg PUBLIC "-//W3C//DTD SVG 20010904//EN"
 "http://www.w3.org/TR/2001/REC-SVG-20010904/DTD/svg10.dtd">
<svg version="1.0" xmlns="http://www.w3.org/2000/svg"
 width="512.000000pt" height="512.000000pt" viewBox="0 0 512.000000 512.000000"
 preserveAspectRatio="xMidYMid meet">

<g transform="translate(0.000000,512.000000) scale(0.100000,-0.100000)"
fill="#000000" stroke="none">
<path d="M0 2560 l0 -2560 2560 0 2560 0 0 2560 0 2560 -2560 0 -2560 0 0
-2560z m4032 1769 c96 -20 210 -82 282 -155 73 -72 135 -186 155 -282 8 -37
11 -422 11 -1240 0 -1317 2 -1263 -66 -1394 -67 -127 -209 -242 -341 -277
l-43 -12 0 -229 0 -230 -337 225 -338 225 -1101 0 c-687 0 -1122 4 -1155 10
-148 27 -309 149 -383 288 -68 131 -66 77 -66 1394 0 818 3 1203 11 1240 20
96 82 210 155 282 72 73 189 138 279 154 74 14 2869 15 2937 1z"/>
<path d="M1500 3800 l0 -130 25 0 c23 0 25 4 25 45 l0 45 45 0 c59 0 95 32 95
85 0 25 -8 44 -25 60 -21 22 -33 25 -95 25 l-70 0 0 -130z m135 45 c0 -28 -3
-30 -42 -33 l-43 -3 0 36 0 36 43 -3 c39 -3 42 -5 42 -33z"/>
<path d="M3340 3890 c0 -16 -4 -30 -10 -30 -5 0 -10 -9 -10 -20 0 -11 5 -20
10 -20 6 0 10 -25 10 -56 0 -73 12 -94 53 -94 18 0 37 4 43 8 17 11 2 37 -21
37 -17 0 -20 8 -23 53 -3 47 -1 52 17 52 14 0 21 6 21 20 0 13 -7 20 -20 20
-16 0 -20 7 -20 30 0 25 -4 30 -25 30 -21 0 -25 -5 -25 -30z"/>
<path d="M1733 3836 c-23 -20 -28 -32 -28 -70 0 -58 26 -86 87 -93 37 -4 49
-1 74 20 25 22 27 27 12 32 -9 4 -25 2 -37 -4 -32 -17 -69 -13 -81 9 -10 19
-8 20 65 20 l75 0 0 29 c0 70 -109 107 -167 57z m105 -28 c22 -22 13 -28 -38
-28 -48 0 -50 1 -40 20 12 23 59 27 78 8z"/>
<path d="M1930 3765 c0 -95 0 -95 25 -95 24 0 25 3 25 58 0 64 21 97 57 90 15
-3 18 -15 21 -76 3 -69 4 -72 27 -72 24 0 25 2 25 76 0 96 -9 114 -58 114 -21
0 -44 -6 -51 -12 -11 -10 -14 -10 -18 0 -3 6 -16 12 -29 12 -24 0 -24 -1 -24
-95z"/>
<path d="M2167 3842 c-36 -39 -12 -81 56 -97 39 -10 35 -35 -5 -35 -18 0 -40
4 -48 10 -9 6 -17 5 -22 -3 -12 -19 -10 -23 17 -35 40 -18 99 -15 118 6 36 39
12 80 -55 96 -17 4 -28 13 -28 23 0 13 8 15 44 10 33 -5 45 -3 50 8 13 35 -98
50 -127 17z"/>
<path d="M2352 3848 c-37 -18 -19 -33 38 -33 34 0 55 -5 57 -12 3 -9 -9 -13
-41 -13 -53 0 -86 -25 -86 -64 0 -48 72 -73 117 -41 19 13 22 13 27 0 3 -8 15
-15 27 -15 19 0 21 4 15 31 -3 17 -6 49 -6 71 0 73 -75 111 -148 76z m93 -98
c10 -16 -14 -40 -41 -40 -26 0 -38 14 -30 35 6 17 62 20 71 5z"/>
<path d="M2550 3765 c0 -95 0 -95 25 -95 24 0 25 3 25 58 0 44 5 63 18 75 40
36 62 8 62 -77 0 -53 1 -56 25 -56 24 0 25 2 25 65 0 55 3 66 21 75 39 21 49
6 49 -70 0 -68 1 -70 25 -70 24 0 25 2 25 76 0 41 -5 84 -10 95 -13 23 -66 26
-97 4 -18 -13 -22 -13 -33 0 -14 17 -63 20 -91 5 -13 -7 -19 -7 -19 0 0 5 -11
10 -25 10 -25 0 -25 0 -25 -95z"/>
<path d="M2913 3836 c-23 -20 -28 -32 -28 -70 0 -58 26 -86 87 -93 37 -4 49
-1 74 20 25 22 27 27 12 32 -9 4 -25 2 -37 -4 -32 -17 -69 -13 -81 9 -10 19
-8 20 65 20 l75 0 0 29 c0 70 -109 107 -167 57z m105 -28 c22 -22 13 -28 -38
-28 -48 0 -50 1 -40 20 12 23 59 27 78 8z"/>
<path d="M3110 3765 c0 -95 0 -95 25 -95 24 0 25 3 25 58 0 64 21 97 57 90 15
-3 18 -15 21 -76 3 -69 4 -72 27 -72 24 0 25 2 25 76 0 96 -9 114 -58 114 -21
0 -44 -6 -51 -12 -11 -10 -14 -10 -18 0 -3 6 -16 12 -29 12 -24 0 -24 -1 -24
-95z"/>
<path d="M3488 3830 c-27 -28 -30 -36 -25 -73 8 -55 43 -87 98 -87 55 0 99 42
99 95 0 87 -109 128 -172 65z m106 -26 c31 -31 10 -94 -31 -94 -24 0 -53 30
-53 53 0 26 28 57 51 57 10 0 25 -7 33 -16z"/>
<path d="M3707 3842 c-36 -39 -12 -81 56 -97 39 -10 35 -35 -5 -35 -18 0 -40
4 -48 10 -9 6 -17 5 -22 -3 -12 -19 -10 -23 17 -35 40 -18 99 -15 118 6 36 39
12 80 -55 96 -17 4 -28 13 -28 23 0 13 8 15 44 10 33 -5 45 -3 50 8 13 35 -98
50 -127 17z"/>
<path d="M1490 2510 l0 -980 860 0 860 0 2 813 3 812 313 3 312 2 0 165 0 165
-815 0 -815 0 0 -165 0 -165 313 -2 312 -3 0 -645 0 -645 -477 -3 -478 -2 0
815 0 815 -195 0 -195 0 0 -980z"/>
</g>
</svg>
